<svg width="12" height="2" viewBox="0 0 12 2" fill="none" xmlns="http://www.w3.org/2000/svg">
<path id="Union" fill-rule="evenodd" clip-rule="evenodd" d="M2 1C2 1.55228 1.55228 2 1 2C0.447715 2 0 1.55228 0 1C0 0.447715 0.447715 0 1 0C1.55228 0 2 0.447715 2 1ZM7.00016 1C7.00016 1.55228 6.55245 2 6.00016 2C5.44788 2 5.00016 1.55228 5.00016 1C5.00016 0.447715 5.44788 0 6.00016 0C6.55245 0 7.00016 0.447715 7.00016 1ZM11 2C11.5523 2 12 1.55228 12 1C12 0.447715 11.5523 0 11 0C10.4477 0 10 0.447715 10 1C10 1.55228 10.4477 2 11 2Z" fill="#0083FF"/>
</svg>
