<svg width="14" height="14" viewBox="0 0 14 14" fill="none" xmlns="http://www.w3.org/2000/svg">
<path id="Union" fill-rule="evenodd" clip-rule="evenodd" d="M1.07771 12.9221H13.4747V12.9224C13.6152 12.9259 13.7488 12.9843 13.847 13.0849C13.9452 13.1856 14.0001 13.3206 14.0001 13.4613C14.0001 13.6019 13.9452 13.7369 13.847 13.8376C13.7488 13.9382 13.6152 13.9966 13.4747 14.0001H0.539027C0.396068 14.0001 0.258965 13.9433 0.157877 13.8422C0.0567902 13.7411 0 13.604 0 13.4611V0.525448C0.00354213 0.384886 0.0618689 0.251271 0.162538 0.153106C0.263207 0.0549423 0.398249 0 0.538856 0C0.679464 0 0.814506 0.0549423 0.915175 0.153106C1.01584 0.251271 1.07417 0.384886 1.07771 0.525448V12.9221ZM5.74793 5.78197L3.07657 8.45265C3.0264 8.50269 2.96686 8.54235 2.90135 8.56938C2.83585 8.59641 2.76566 8.61028 2.6948 8.61018C2.62394 8.61009 2.55379 8.59603 2.48835 8.56883C2.42292 8.54162 2.36349 8.50179 2.31345 8.45162C2.26341 8.40144 2.22374 8.34191 2.19671 8.2764C2.16968 8.2109 2.15582 8.14071 2.15591 8.06985C2.15601 7.99898 2.17006 7.92883 2.19727 7.8634C2.22447 7.79797 2.2643 7.73854 2.31448 7.6885L5.36303 4.63925C5.46459 4.53872 5.60177 4.48239 5.74468 4.48256H5.74896C5.82011 4.48257 5.89055 4.49667 5.95623 4.52403C6.02191 4.55139 6.08152 4.59148 6.13163 4.64199L8.7905 7.30086L12.2142 3.87767C12.3163 3.78094 12.4522 3.72787 12.5928 3.72977C12.7335 3.73166 12.8679 3.78836 12.9674 3.88781C13.0669 3.98726 13.1236 4.1216 13.1256 4.26226C13.1275 4.40292 13.0745 4.53879 12.9778 4.64096L9.27137 8.34744C9.22827 8.42023 9.16902 8.48215 9.0982 8.52842C9.02737 8.57468 8.94687 8.60405 8.86289 8.61427C8.77892 8.62449 8.69371 8.61527 8.61386 8.58734C8.53401 8.5594 8.46165 8.5135 8.40236 8.45316C8.37595 8.42681 8.35233 8.3978 8.33188 8.3666L5.74793 5.78197Z" fill="#0083FF"/>
</svg>
