<svg width="14" height="14" viewBox="0 0 14 14" fill="none" xmlns="http://www.w3.org/2000/svg">
<g id="&#232;&#190;&#147;&#229;&#133;&#165;Prompt">
<path id="Union" fill-rule="evenodd" clip-rule="evenodd" d="M4.46685 2.64978L5.40452 1.02707C5.41037 1.01751 5.41894 1.0099 5.42912 1.00521C5.4393 1.00052 5.45065 0.998945 5.46173 1.0007C5.47281 1.00245 5.48312 1.00744 5.49135 1.01505C5.49959 1.02265 5.50538 1.03253 5.508 1.04342L6.50386 4.82653C6.51825 4.88426 6.50993 4.94531 6.4806 4.99709L5.87462 6.04578C5.84503 6.09776 5.83712 6.15928 5.85258 6.21705L5.98454 6.70945L8.35066 4.36406C8.39346 4.32273 8.4505 4.29942 8.51001 4.29893L9.72119 4.29938C9.78099 4.29901 9.83824 4.2751 9.88053 4.23283L11.8949 2.21833L12.6284 1.48308C12.6703 1.44086 12.7202 1.40737 12.7751 1.38452C12.8301 1.36167 12.889 1.34992 12.9485 1.34995C13.008 1.34997 13.0669 1.36176 13.1219 1.38465C13.1768 1.40754 13.2267 1.44107 13.2687 1.48331C13.3538 1.56851 13.4016 1.68398 13.4016 1.80435C13.4017 1.92473 13.3539 2.04016 13.2689 2.1253L12.5354 2.86196L10.5232 4.87505C10.5021 4.89592 10.4854 4.92075 10.474 4.9481C10.4626 4.97546 10.4567 5.0048 10.4567 5.03446L10.4571 6.24615C10.4573 6.27571 10.4517 6.30502 10.4405 6.33238C10.4293 6.35975 10.4128 6.38462 10.392 6.40556L7.63705 9.18577C7.62693 9.19661 7.61292 9.20297 7.5981 9.20348C7.58309 9.20342 7.5687 9.19743 7.55808 9.18681C7.54746 9.17618 7.54147 9.16179 7.54142 9.14677L7.54073 7.27325C7.54068 7.25823 7.53469 7.24383 7.52407 7.23321C7.51345 7.22259 7.49906 7.21659 7.48405 7.21654L6.1203 7.21604L6.59001 8.96878L6.86 9.97166C6.87559 10.0291 6.87966 10.089 6.87198 10.148C6.8643 10.207 6.84502 10.2639 6.81524 10.3154C6.78547 10.367 6.74579 10.4121 6.69849 10.4482C6.6512 10.4844 6.59721 10.5108 6.53965 10.5261C6.42333 10.5571 6.29943 10.5408 6.19516 10.4806C6.09089 10.4205 6.01478 10.3214 5.98355 10.2053L5.71234 9.20168L4.97508 6.45249C4.96752 6.42384 4.95437 6.39696 4.93639 6.37339C4.91841 6.34983 4.89594 6.33005 4.87028 6.31518L3.82071 5.70972C3.79499 5.69513 3.77243 5.67558 3.75432 5.65223C3.73621 5.62887 3.72292 5.60216 3.71521 5.57363L2.68494 1.79767C2.68062 1.78348 2.68211 1.76817 2.68909 1.75508C2.69664 1.74211 2.70902 1.73264 2.72354 1.72876C2.73805 1.72487 2.75351 1.72688 2.76654 1.73435L4.3894 2.67051C4.40243 2.67798 4.41789 2.67999 4.4324 2.6761C4.44692 2.67222 4.4593 2.66275 4.46685 2.64978ZM5.1771 3.35386L5.16601 3.3164C5.1643 3.30959 5.16141 3.30373 5.15649 3.29872C5.15156 3.29372 5.14539 3.29012 5.13861 3.28829C5.13183 3.28646 5.12469 3.28647 5.11792 3.28832C5.11114 3.29017 5.10498 3.29378 5.10007 3.2988C4.8473 3.56346 4.5208 3.68094 4.17007 3.55711C4.16316 3.55425 4.15558 3.55339 4.1482 3.55462C4.14082 3.55586 4.13394 3.55914 4.12835 3.5641C4.12275 3.56906 4.11866 3.5755 4.11655 3.58267C4.11444 3.58984 4.11439 3.59746 4.11641 3.60466L4.12497 3.63658L4.49033 4.97576C4.50676 5.03295 4.54452 5.08166 4.59583 5.11185L5.07459 5.38802C5.10065 5.40295 5.13158 5.40697 5.1606 5.3992C5.18962 5.39143 5.21439 5.3725 5.22949 5.34655L5.50697 4.86636C5.52193 4.84088 5.53169 4.81268 5.53568 4.78341C5.53968 4.75413 5.53782 4.72436 5.53023 4.6958L5.39986 4.20194L5.1771 3.35386ZM2.92342 5.26152C2.88798 5.00798 2.65354 4.83116 2.39979 4.86658C2.14604 4.90199 1.96907 5.13623 2.00452 5.38976L2.88844 11.7125C2.9916 12.4504 3.62323 12.9995 4.3689 12.9995H9.6311C10.3768 12.9995 11.0084 12.4504 11.1116 11.7125L11.9955 5.38976C12.0309 5.13623 11.854 4.90199 11.6002 4.86658C11.3465 4.83116 11.112 5.00798 11.0766 5.26152L10.1927 11.5843C10.1535 11.8642 9.91394 12.0724 9.6311 12.0724H4.3689C4.08606 12.0724 3.84648 11.8642 3.80735 11.5843L2.92342 5.26152ZM7.71178 6.27774L7.73868 6.24941L8.36175 5.63245L8.72427 5.27262C8.7452 5.25176 8.77006 5.23527 8.79741 5.22409C8.82476 5.21291 8.85406 5.20727 8.88361 5.20748L9.4382 5.20769C9.46823 5.20779 9.497 5.21978 9.51824 5.24103C9.53948 5.26228 9.55147 5.29106 9.55157 5.3211L9.55177 5.87381C9.55129 5.93334 9.52798 5.9904 9.48667 6.03322L8.50958 7.01922L8.48622 7.04259C8.481 7.04794 8.47437 7.05171 8.46711 7.05347C8.45984 7.05522 8.45222 7.0549 8.44513 7.05253C8.43804 7.05016 8.43175 7.04585 8.42699 7.04008C8.42223 7.0343 8.41919 7.02731 8.41821 7.01989C8.35008 6.65424 8.0851 6.43022 7.72951 6.34364C7.72271 6.3419 7.7165 6.33837 7.71151 6.33343C7.70652 6.32849 7.70294 6.32231 7.70114 6.31552C7.69933 6.30874 7.69936 6.30159 7.70123 6.29483C7.7031 6.28806 7.70674 6.28263 7.71178 6.27774Z" fill="#0083FF"/>
</g>
</svg>
