<svg width="14" height="14" viewBox="0 0 14 14" fill="none" xmlns="http://www.w3.org/2000/svg">
<path id="Union" fill-rule="evenodd" clip-rule="evenodd" d="M1.92772 1.87271L1.92772 0.0536183C1.928 0.0427436 1.9315 0.032196 1.93777 0.0233106C1.94405 0.0144242 1.95282 0.00759975 1.96298 0.00370017C1.97313 -0.000200358 1.98422 -0.00100144 1.99483 0.001398C2.00544 0.0037984 2.0151 0.00929061 2.02259 0.0171823L3.45806 1.46641L4.09193 2.10577L4.69554 2.71488C4.73566 2.75644 4.7583 2.81181 4.75879 2.86957L4.75879 4.04517C4.75917 4.10322 4.78238 4.15879 4.82341 4.19986L5.08466 4.4611L6.77863 6.15576L7.49224 6.868C7.53321 6.90871 7.56573 6.95713 7.58791 7.01046C7.6101 7.06379 7.62152 7.12098 7.62152 7.17874C7.62152 7.2365 7.6101 7.29369 7.58791 7.34702C7.56573 7.40035 7.53321 7.44877 7.49224 7.48949C7.40961 7.57202 7.2976 7.61838 7.18081 7.61838C7.06402 7.61838 6.95201 7.57202 6.86938 7.48949L6.15439 6.77725L5.50265 6.12551L4.20055 4.82341C4.18029 4.80298 4.1562 4.78676 4.12965 4.77567C4.10311 4.76458 4.07463 4.75884 4.04587 4.75879L2.87026 4.75879C2.84158 4.75899 2.81314 4.7535 2.78659 4.74264C2.76004 4.73179 2.7359 4.71578 2.71558 4.69554L2.10509 4.09055L1.46572 3.45668L0.0171867 2.02052C0.0066741 2.01069 0.000492474 1.99709 -5.25292e-07 1.98271C4.48016e-05 1.96814 0.00585388 1.95417 0.0161584 1.94387C0.0264629 1.93357 0.0404258 1.92776 0.0549985 1.92771L1.87272 1.92771C1.88729 1.92766 1.90125 1.92186 1.91156 1.91155C1.92186 1.90125 1.92767 1.88728 1.92772 1.87271ZM2.86614 2.12021L2.83864 2.09408L2.83932 2.09408C2.83458 2.0892 2.82862 2.08566 2.82205 2.08385C2.81549 2.08203 2.80856 2.08199 2.80198 2.08374C2.7954 2.08549 2.7894 2.08897 2.7846 2.09381C2.77981 2.09864 2.77639 2.10467 2.7747 2.11127C2.69083 2.45639 2.47358 2.71351 2.11884 2.77951C2.11164 2.78045 2.10486 2.7834 2.09926 2.78802C2.09366 2.79264 2.08948 2.79874 2.08718 2.80562C2.08489 2.81251 2.08457 2.8199 2.08628 2.82695C2.08799 2.834 2.09165 2.84043 2.09684 2.84551L2.11952 2.86819L2.72314 3.46631L3.07651 3.81693C3.11807 3.85704 3.17343 3.87968 3.23119 3.88018L3.76743 3.88018C3.79658 3.88009 3.8245 3.86847 3.84511 3.84786C3.86572 3.82725 3.87734 3.79932 3.87743 3.77018L3.87743 3.23187C3.87763 3.20319 3.87214 3.17475 3.86129 3.1482C3.85043 3.12165 3.83442 3.09752 3.81418 3.07719L3.46494 2.7252L2.86614 2.12021ZM4.40405 1.79434L3.8953 1.28147C3.88943 1.27547 3.88502 1.2682 3.88241 1.26022C3.8798 1.25224 3.87906 1.24376 3.88026 1.23545C3.88146 1.22714 3.88455 1.21921 3.88931 1.21229C3.89406 1.20537 3.90035 1.19964 3.90768 1.19554C4.91068 0.645806 6.03635 0.358477 7.18012 0.360241C10.9462 0.36024 14 3.41406 14 7.18012C14 10.9462 10.9462 14 7.18012 14C3.41406 14 0.36093 10.9462 0.36093 7.18012C0.359529 6.03692 0.646592 4.91184 1.19554 3.90905C1.19964 3.90172 1.20537 3.89544 1.21229 3.89068C1.21922 3.88593 1.22714 3.88283 1.23545 3.88164C1.24376 3.88044 1.25224 3.88117 1.26022 3.88378C1.2682 3.88639 1.27548 3.8908 1.28148 3.89668L1.79434 4.40542L1.85347 4.46317C1.86145 4.47138 1.86678 4.48181 1.86874 4.49309C1.8707 4.50438 1.86921 4.51599 1.86447 4.52642C1.80809 4.63916 1.75584 4.75329 1.70634 4.86879C1.24777 5.95784 1.12416 7.15886 1.35131 8.31849C1.57845 9.47813 2.14604 10.5438 2.98161 11.3793C3.81717 12.2149 4.8828 12.7825 6.04243 13.0096C7.20207 13.2368 8.40308 13.1132 9.49214 12.6546C10.944 12.0415 12.0928 10.8768 12.6859 9.41665C13.2789 7.95653 13.2677 6.32061 12.6546 4.86879C12.0415 3.41696 10.8768 2.26815 9.41665 1.67507C7.95653 1.082 6.32061 1.09325 4.86879 1.70634C4.75191 1.75584 4.63779 1.80809 4.52504 1.86446C4.51477 1.86987 4.50299 1.87172 4.49155 1.86973C4.4801 1.86774 4.46964 1.86202 4.46179 1.85346L4.40405 1.79434ZM4.13942 5.4978C4.14217 5.55124 4.13128 5.6045 4.10776 5.65257C4.07545 5.71856 4.0452 5.78594 4.01633 5.85331C3.81602 6.32804 3.72368 6.84133 3.74596 7.3561C3.76825 7.87087 3.90461 8.37426 4.14518 8.8299C4.38576 9.28554 4.72455 9.68204 5.13708 9.99076C5.5496 10.2995 6.02555 10.5127 6.53054 10.615C7.03553 10.7174 7.55694 10.7062 8.0571 10.5825C8.55727 10.4587 9.02369 10.2253 9.42266 9.89929C9.82163 9.57324 10.1432 9.16264 10.3641 8.69715C10.585 8.23167 10.6998 7.72291 10.7001 7.20766C10.7007 6.74212 10.6081 6.28117 10.4278 5.85194C10.0681 5.00251 9.38602 4.33055 8.53131 3.98356C7.67661 3.63657 6.71914 3.64292 5.86911 4.00122C5.79486 4.03284 5.72336 4.06584 5.65324 4.10159C5.60583 4.12616 5.5529 4.1381 5.49954 4.13627C5.44618 4.13443 5.39419 4.11887 5.34859 4.0911C5.30299 4.06332 5.26532 4.02427 5.2392 3.9777C5.21309 3.93113 5.19941 3.87862 5.19949 3.82522L5.19949 3.53923C5.19927 3.47973 5.21612 3.42142 5.24805 3.37121C5.27998 3.321 5.32564 3.28101 5.37962 3.25598C5.95952 2.98572 6.59192 2.84675 7.23171 2.84899C9.63792 2.85449 11.5801 4.8042 11.5801 7.20766C11.5801 9.60562 9.64273 11.5526 7.24752 11.565C4.83444 11.5787 2.86272 9.61937 2.86272 7.20629C2.86211 6.57685 2.99816 5.95479 3.26147 5.38307C3.28624 5.32801 3.32644 5.28131 3.37719 5.24861C3.42794 5.21591 3.48709 5.19862 3.54746 5.19882L3.82452 5.19882C3.87803 5.19881 3.93066 5.21241 3.97746 5.23835C4.02426 5.2643 4.06368 5.30173 4.09201 5.34712C4.12035 5.39251 4.13666 5.44437 4.13942 5.4978ZM6.14752 7.55481C6.08815 7.38956 5.99389 7.23902 5.87115 7.11345L5.8464 7.0887L5.36929 6.61158C5.36253 6.60477 5.35411 6.59983 5.34486 6.59727C5.33561 6.59471 5.32585 6.5946 5.31655 6.59696C5.30725 6.59932 5.29872 6.60407 5.29181 6.61073C5.28491 6.61739 5.27986 6.62574 5.27716 6.63496C5.15715 7.05615 5.18037 7.50527 5.34317 7.91185C5.50597 8.31843 5.79915 8.65945 6.17669 8.88142C6.55424 9.10338 6.99479 9.19373 7.42923 9.13828C7.86367 9.08282 8.2674 8.88471 8.57709 8.57503C8.88677 8.26534 9.08488 7.86161 9.14033 7.42717C9.19579 6.99273 9.10544 6.55218 8.88348 6.17463C8.66151 5.79709 8.32049 5.50391 7.91391 5.34111C7.50733 5.17831 7.05821 5.15509 6.63701 5.2751C6.62777 5.27775 6.61938 5.28278 6.61268 5.28968C6.60599 5.29659 6.60122 5.30513 6.59885 5.31445C6.59649 5.32377 6.59661 5.33355 6.5992 5.34281C6.6018 5.35207 6.60678 5.36049 6.61364 5.36723L7.11551 5.87047C7.24099 5.993 7.39158 6.08683 7.55687 6.14546C7.73079 6.20861 7.88597 6.31461 8.00805 6.45365C8.13012 6.59269 8.21516 6.76028 8.25527 6.9409C8.29539 7.12153 8.28929 7.30935 8.23755 7.487C8.18581 7.66464 8.0901 7.82637 7.95926 7.9572C7.82843 8.08804 7.6667 8.18375 7.48906 8.23549C7.31141 8.28724 7.12359 8.29333 6.94296 8.25321C6.76234 8.2131 6.59475 8.12806 6.45571 8.00599C6.31667 7.88391 6.21067 7.72873 6.14752 7.55481Z" fill="#0083FF"/>
</svg>
