<svg width="16" height="15" viewBox="0 0 16 15" fill="none" xmlns="http://www.w3.org/2000/svg">
<g id="Group 427319592">
<path id="Vector" d="M7.3 7.97295C7.45913 7.97295 7.61174 7.90974 7.72426 7.79721C7.83679 7.68469 7.9 7.53208 7.9 7.37295C7.9 7.21382 7.83679 7.06121 7.72426 6.94869C7.61174 6.83616 7.45913 6.77295 7.3 6.77295V7.97295ZM1 7.97295H7.3V6.77295H1V7.97295Z" fill="#0083FF"/>
<path id="Vector_2" d="M3.8 4.22266L1 7.36266L3.8 10.5127" stroke="#0083FF" stroke-width="1.1" stroke-linecap="round" stroke-linejoin="round"/>
<path id="Vector_3" d="M6.60069 4.66268V4.52268C6.53395 3.87972 6.59859 3.2299 6.79069 2.61268C6.94077 2.29508 7.17185 2.02261 7.46069 1.82268C8.04173 1.54106 8.67535 1.38435 9.32069 1.36268C11.3207 1.02268 12.3207 0.852682 13.1107 1.16268C13.7139 1.39494 14.226 1.81584 14.5707 2.36268C15.0007 3.07268 15.0007 4.09268 15.0007 6.13268V8.61268C15.0007 10.6127 15.0007 11.6627 14.5707 12.3827C14.2298 12.9421 13.7179 13.3769 13.1107 13.6227C12.3307 13.9227 11.3307 13.7627 9.32069 13.4227C8.67323 13.3837 8.04044 13.2136 7.46069 12.9227C7.17185 12.7228 6.94077 12.4503 6.79069 12.1327C6.59859 11.5155 6.53395 10.8656 6.60069 10.2227" stroke="#0083FF" stroke-width="1.1" stroke-linecap="round"/>
</g>
</svg>
