<svg width="14" height="13" viewBox="0 0 14 13" fill="none" xmlns="http://www.w3.org/2000/svg">
<g id="Vector">
<path d="M11.9004 10.4462C11.6736 10.4463 11.4517 10.5122 11.2619 10.6359C11.0722 10.7596 10.9228 10.9357 10.8322 11.1427H8.6101C8.56519 10.8377 8.4338 10.5518 8.23136 10.3184C8.02892 10.0851 7.76382 9.91406 7.46714 9.82533V7.89238H10.2671C10.6384 7.89238 10.9945 7.74562 11.2571 7.48438C11.5196 7.22315 11.6671 6.86883 11.6671 6.49939C11.6671 6.12995 11.5196 5.77564 11.2571 5.5144C10.9945 5.25316 10.6384 5.1064 10.2671 5.1064H3.73383C3.36252 5.1064 3.00643 5.25316 2.74388 5.5144C2.48133 5.77564 2.33383 6.12995 2.33383 6.49939C2.33383 6.86883 2.48133 7.22315 2.74388 7.48438C3.00643 7.74562 3.36252 7.89238 3.73383 7.89238H6.53381V9.82533C6.2371 9.91397 5.97196 10.085 5.76954 10.3184C5.56711 10.5517 5.4358 10.8377 5.39103 11.1427H3.16873C3.06155 10.8989 2.87329 10.6992 2.63559 10.5772C2.3979 10.4553 2.12525 10.4184 1.86347 10.4729C1.60169 10.5274 1.36673 10.6699 1.19809 10.8764C1.02944 11.0829 0.937378 11.3409 0.937378 11.607C0.937378 11.8731 1.02944 12.1311 1.19809 12.3376C1.36673 12.5442 1.60169 12.6866 1.86347 12.7411C2.12525 12.7956 2.3979 12.7588 2.63559 12.6368C2.87329 12.5148 3.06155 12.3151 3.16873 12.0713H5.53103C5.79426 12.6184 6.35134 13 7.00047 13C7.64961 13 8.20687 12.6191 8.4701 12.0713H10.8322C10.9164 12.2632 11.0511 12.4288 11.2221 12.5507C11.3932 12.6726 11.5941 12.7462 11.8038 12.7638C12.0134 12.7813 12.2239 12.7421 12.413 12.6503C12.6021 12.5585 12.7627 12.4176 12.8779 12.2424C12.993 12.0672 13.0584 11.8643 13.0671 11.6551C13.0759 11.446 13.0276 11.2384 12.9274 11.0543C12.8272 10.8702 12.6789 10.7165 12.4981 10.6095C12.3173 10.5024 12.1108 10.446 11.9004 10.4462ZM3.73383 6.96372C3.61397 6.95794 3.50094 6.9065 3.41816 6.82006C3.33539 6.73361 3.28921 6.61879 3.28921 6.49939C3.28921 6.37999 3.33539 6.26517 3.41816 6.17872C3.50094 6.09228 3.61397 6.04084 3.73383 6.03506H10.2671C10.387 6.04084 10.5 6.09228 10.5828 6.17872C10.6656 6.26517 10.7117 6.37999 10.7117 6.49939C10.7117 6.61879 10.6656 6.73361 10.5828 6.82006C10.5 6.9065 10.387 6.95794 10.2671 6.96372H3.73383ZM7.00047 12.0713C6.86203 12.0713 6.72669 12.0305 6.61158 11.954C6.49646 11.8774 6.40674 11.7687 6.35376 11.6414C6.30078 11.5141 6.28692 11.3741 6.31393 11.239C6.34094 11.1039 6.40761 10.9798 6.5055 10.8824C6.6034 10.7849 6.72813 10.7186 6.86391 10.6917C6.9997 10.6649 7.14044 10.6787 7.26835 10.7314C7.39626 10.7841 7.50558 10.8734 7.5825 10.9879C7.65942 11.1024 7.70047 11.2371 7.70047 11.3748C7.70023 11.5595 7.6264 11.7365 7.49518 11.8671C7.36396 11.9976 7.18605 12.0711 7.00047 12.0713Z" fill="#0083FF"/>
<path d="M3.50002 9.75H4.8342C4.95797 9.75 5.07667 9.70108 5.16419 9.614C5.2517 9.52692 5.30087 9.40881 5.30087 9.28567C5.30087 9.16252 5.2517 9.04441 5.16419 8.95734C5.07667 8.87026 4.95797 8.82134 4.8342 8.82134H3.50002C2.85404 8.82131 2.23182 8.57896 1.75749 8.14263C1.28317 7.70629 0.991611 7.10807 0.940996 6.4673C0.89038 5.82652 1.08442 5.19032 1.48442 4.68561C1.88441 4.18091 2.46094 3.84481 3.09898 3.74437L3.37661 3.7012L3.46775 3.43639C3.72059 2.70423 4.1969 2.06891 4.83019 1.61915C5.46348 1.16938 6.22212 0.927616 7.00018 0.927616C7.77824 0.927616 8.53689 1.16938 9.17017 1.61915C9.80346 2.06891 10.2798 2.70423 10.5326 3.43639L10.6238 3.7012L10.901 3.74437C11.5061 3.83659 12.0577 4.14216 12.4553 4.60534C12.8528 5.06851 13.0698 5.65844 13.0666 6.26753C13.0666 7.67539 11.9149 8.82134 10.5 8.82134H9.08139C8.95763 8.82134 8.83893 8.87026 8.75141 8.95734C8.6639 9.04441 8.61473 9.16252 8.61473 9.28567C8.61473 9.40881 8.6639 9.52692 8.75141 9.614C8.83893 9.70108 8.95763 9.75 9.08139 9.75H10.5C12.4301 9.75 14 8.18796 14 6.26753C14.0038 5.48484 13.7409 4.72396 13.2543 4.10903C12.7676 3.4941 12.0859 3.06141 11.3203 2.88155C10.9687 2.02921 10.3703 1.30016 9.60116 0.787058C8.83205 0.273962 7.92698 0 7.001 0C6.07502 0 5.16995 0.273962 4.40084 0.787058C3.63174 1.30016 3.03334 2.02921 2.68172 2.88155C1.91576 3.06102 1.23357 3.49354 0.746522 4.10851C0.25947 4.72348 -0.00367786 5.48457 3.88372e-05 6.26753C3.88372e-05 8.18796 1.56993 9.75 3.50002 9.75Z" fill="#0083FF"/>
</g>
</svg>
