<svg width="14" height="126" viewBox="0 0 14 126" fill="none" xmlns="http://www.w3.org/2000/svg">
<g id="Group 427319598">
<path id="Vector 297" d="M7 14L7 110" stroke="url(#paint0_linear_100_1127)"/>
<g id="Group 427319597">
<circle id="Ellipse 318" cx="7" cy="119" r="6.5" stroke="#0096EB"/>
<path id="Ellipse 319" d="M11 119C11 121.209 9.20914 123 7 123C4.79086 123 3 121.209 3 119C3 116.791 4.79086 115 7 115C9.20914 115 11 116.791 11 119Z" stroke="#0096EB"/>
<circle id="Ellipse 320" cx="7" cy="119" r="1.5" stroke="#0096EB"/>
</g>
<path id="Vector" d="M2.95111 0.084041V2.8656C2.95111 2.88771 2.94233 2.90891 2.92668 2.92454C2.91104 2.94017 2.88982 2.94896 2.86769 2.94896H0.0841025C0.0672401 2.94882 0.0507318 2.95379 0.0367542 2.96322C0.0227766 2.97264 0.0119861 2.98608 0.00580535 3.00176C-0.000375343 3.01744 -0.00165599 3.03462 0.00213226 3.05104C0.00592052 3.06746 0.0145998 3.08235 0.0270257 3.09374L1.91495 4.95835L2.24424 5.28739L2.73598 5.77439L3.22333 6.25699L4.15851 7.18271C4.22233 7.24392 4.30714 7.27845 4.3956 7.27923H6.19571C6.28487 7.28074 6.36993 7.31694 6.4328 7.38014L7.96948 8.9157L8.40853 9.35443L9.40957 10.3504L10.0199 10.969L9.5369 11.4516C9.49139 11.4964 9.46032 11.5537 9.44767 11.6163C9.43502 11.6789 9.44137 11.7438 9.4659 11.8027C9.49044 11.8617 9.53204 11.9119 9.58537 11.9471C9.6387 11.9822 9.70133 12.0007 9.76521 12H11.6795C11.7645 12 11.846 11.9662 11.9061 11.9062C11.9662 11.8461 12 11.7647 12 11.6797V9.75368C12.0007 9.68985 11.9822 9.62727 11.9471 9.57398C11.9119 9.52069 11.8616 9.47911 11.8026 9.4546C11.7436 9.43008 11.6786 9.42373 11.616 9.43637C11.5534 9.44901 11.496 9.48006 11.4512 9.52554L10.977 10.0081L10.3843 9.41586L7.78947 6.82734L7.38993 6.4281C7.35822 6.39727 7.33297 6.36045 7.31563 6.31977C7.29829 6.2791 7.28923 6.23539 7.28895 6.19118V4.38799C7.28925 4.3441 7.28087 4.30057 7.2643 4.25991C7.24772 4.21926 7.22327 4.18227 7.19236 4.15108L6.27035 3.21658L5.29565 2.2426L3.096 0.027006C3.0846 0.0145891 3.0697 0.00591619 3.05327 0.00213071C3.03684 -0.00165478 3.01965 -0.000375069 3.00396 0.00580111C2.98827 0.0119773 2.97482 0.0227599 2.96538 0.0367273C2.95595 0.0506947 2.95098 0.0671909 2.95111 0.084041Z" fill="#3EC5AF"/>
</g>
<defs>
<linearGradient id="paint0_linear_100_1127" x1="8" y1="14" x2="8" y2="117.385" gradientUnits="userSpaceOnUse">
<stop stop-color="#3EC5AF"/>
<stop offset="1" stop-color="#0096EB"/>
</linearGradient>
</defs>
</svg>
