<svg width="14" height="14" viewBox="0 0 14 14" fill="none" xmlns="http://www.w3.org/2000/svg">
<path id="&#231;&#188;&#150;&#232;&#190;&#145;" d="M11.6614 4.5656L9.41392 2.32808L10.5377 1.20967C10.7447 1.00333 11.08 1.00333 11.2871 1.20967L12.7852 2.70127C12.8844 2.80003 12.9404 2.93411 12.9404 3.07423C12.9404 3.21412 12.8846 3.34843 12.7852 3.44719L11.6614 4.5656ZM4.8729 11.3869L2.62539 9.14891L8.66545 3.07423L10.9123 5.31128L4.8729 11.3869ZM0.97694 12.7291C0.894448 12.6468 1.29483 10.4739 1.50187 10.268L1.87599 9.8946L4.12396 12.1319L4.29847 11.9583L3.74891 12.5051C3.54233 12.7116 1.35896 13.1097 1.2767 13.0267L0.97694 12.7291ZM12.0358 0.463757C11.4144 -0.154586 10.4101 -0.154586 9.78851 0.463757L0.752468 9.52187C0.131569 10.1397 -0.219778 13.0295 0.152483 13.4009L0.602821 13.8484C0.975081 14.2186 3.87741 13.8691 4.49808 13.251L13.5346 4.19287C13.8327 3.89683 14.0003 3.49413 14.0003 3.074C14.0003 2.65387 13.8325 2.25117 13.5346 1.95536L12.0358 0.463525V0.463757Z" fill="#0083FF"/>
</svg>
