<svg width="14" height="14" viewBox="0 0 14 14" fill="none" xmlns="http://www.w3.org/2000/svg">
<g id="Vector">
<path d="M11.9004 10.9462C11.6736 10.9463 11.4517 11.0122 11.2619 11.1359C11.0722 11.2596 10.9228 11.4357 10.8322 11.6427H8.6101C8.56519 11.3377 8.4338 11.0518 8.23136 10.8184C8.02892 10.5851 7.76382 10.4141 7.46714 10.3253V8.39238H10.2671C10.6384 8.39238 10.9945 8.24562 11.2571 7.98438C11.5196 7.72315 11.6671 7.36883 11.6671 6.99939C11.6671 6.62995 11.5196 6.27564 11.2571 6.0144C10.9945 5.75316 10.6384 5.6064 10.2671 5.6064H3.73383C3.36252 5.6064 3.00643 5.75316 2.74388 6.0144C2.48133 6.27564 2.33383 6.62995 2.33383 6.99939C2.33383 7.36883 2.48133 7.72315 2.74388 7.98438C3.00643 8.24562 3.36252 8.39238 3.73383 8.39238H6.53381V10.3253C6.2371 10.414 5.97196 10.585 5.76954 10.8184C5.56711 11.0517 5.4358 11.3377 5.39103 11.6427H3.16873C3.06155 11.3989 2.87329 11.1992 2.63559 11.0772C2.3979 10.9553 2.12525 10.9184 1.86347 10.9729C1.60169 11.0274 1.36673 11.1699 1.19809 11.3764C1.02944 11.5829 0.937378 11.8409 0.937378 12.107C0.937378 12.3731 1.02944 12.6311 1.19809 12.8376C1.36673 13.0442 1.60169 13.1866 1.86347 13.2411C2.12525 13.2956 2.3979 13.2588 2.63559 13.1368C2.87329 13.0148 3.06155 12.8151 3.16873 12.5713H5.53103C5.79426 13.1184 6.35134 13.5 7.00047 13.5C7.64961 13.5 8.20687 13.1191 8.4701 12.5713H10.8322C10.9164 12.7632 11.0511 12.9288 11.2221 13.0507C11.3932 13.1726 11.5941 13.2462 11.8038 13.2638C12.0134 13.2813 12.2239 13.2421 12.413 13.1503C12.6021 13.0585 12.7627 12.9176 12.8779 12.7424C12.993 12.5672 13.0584 12.3643 13.0671 12.1551C13.0759 11.946 13.0276 11.7384 12.9274 11.5543C12.8272 11.3702 12.6789 11.2165 12.4981 11.1095C12.3173 11.0024 12.1108 10.946 11.9004 10.9462ZM3.73383 7.46372C3.61397 7.45794 3.50094 7.4065 3.41816 7.32006C3.33539 7.23361 3.28921 7.11879 3.28921 6.99939C3.28921 6.87999 3.33539 6.76517 3.41816 6.67872C3.50094 6.59228 3.61397 6.54084 3.73383 6.53506H10.2671C10.387 6.54084 10.5 6.59228 10.5828 6.67872C10.6656 6.76517 10.7117 6.87999 10.7117 6.99939C10.7117 7.11879 10.6656 7.23361 10.5828 7.32006C10.5 7.4065 10.387 7.45794 10.2671 7.46372H3.73383ZM7.00047 12.5713C6.86203 12.5713 6.72669 12.5305 6.61158 12.454C6.49646 12.3774 6.40674 12.2687 6.35376 12.1414C6.30078 12.0141 6.28692 11.8741 6.31393 11.739C6.34094 11.6039 6.40761 11.4798 6.5055 11.3824C6.6034 11.2849 6.72813 11.2186 6.86391 11.1917C6.9997 11.1649 7.14044 11.1787 7.26835 11.2314C7.39626 11.2841 7.50558 11.3734 7.5825 11.4879C7.65942 11.6024 7.70047 11.7371 7.70047 11.8748C7.70023 12.0595 7.6264 12.2365 7.49518 12.3671C7.36396 12.4976 7.18605 12.5711 7.00047 12.5713Z" fill="#0083FF"/>
<path d="M3.50002 10.25H4.8342C4.95797 10.25 5.07667 10.2011 5.16419 10.114C5.2517 10.0269 5.30087 9.90881 5.30087 9.78567C5.30087 9.66252 5.2517 9.54441 5.16419 9.45734C5.07667 9.37026 4.95797 9.32134 4.8342 9.32134H3.50002C2.85404 9.32131 2.23182 9.07896 1.75749 8.64263C1.28317 8.20629 0.991611 7.60807 0.940996 6.9673C0.89038 6.32652 1.08442 5.69032 1.48442 5.18561C1.88441 4.68091 2.46094 4.34481 3.09898 4.24437L3.37661 4.2012L3.46775 3.93639C3.72059 3.20423 4.1969 2.56891 4.83019 2.11915C5.46348 1.66938 6.22212 1.42762 7.00018 1.42762C7.77824 1.42762 8.53689 1.66938 9.17017 2.11915C9.80346 2.56891 10.2798 3.20423 10.5326 3.93639L10.6238 4.2012L10.901 4.24437C11.5061 4.33659 12.0577 4.64216 12.4553 5.10534C12.8528 5.56851 13.0698 6.15844 13.0666 6.76753C13.0666 8.17539 11.9149 9.32134 10.5 9.32134H9.08139C8.95763 9.32134 8.83893 9.37026 8.75141 9.45734C8.6639 9.54441 8.61473 9.66252 8.61473 9.78567C8.61473 9.90881 8.6639 10.0269 8.75141 10.114C8.83893 10.2011 8.95763 10.25 9.08139 10.25H10.5C12.4301 10.25 14 8.68796 14 6.76753C14.0038 5.98484 13.7409 5.22396 13.2543 4.60903C12.7676 3.9941 12.0859 3.56141 11.3203 3.38155C10.9687 2.52921 10.3703 1.80016 9.60116 1.28706C8.83205 0.773962 7.92698 0.5 7.001 0.5C6.07502 0.5 5.16995 0.773962 4.40084 1.28706C3.63174 1.80016 3.03334 2.52921 2.68172 3.38155C1.91576 3.56102 1.23357 3.99354 0.746522 4.60851C0.25947 5.22348 -0.00367786 5.98457 3.88372e-05 6.76753C3.88372e-05 8.68796 1.56993 10.25 3.50002 10.25Z" fill="#0083FF"/>
</g>
</svg>
