<svg width="11" height="13" viewBox="0 0 11 13" fill="none" xmlns="http://www.w3.org/2000/svg">
<path id="Vector" d="M3.07692 6.32353C2.80078 6.32353 2.57692 6.54739 2.57692 6.82353C2.57692 7.09967 2.80078 7.32353 3.07692 7.32353V6.32353ZM7.92308 7.32353C8.19922 7.32353 8.42308 7.09967 8.42308 6.82353C8.42308 6.54739 8.19922 6.32353 7.92308 6.32353V7.32353ZM3.07692 8.26471C2.80078 8.26471 2.57692 8.48856 2.57692 8.76471C2.57692 9.04085 2.80078 9.26471 3.07692 9.26471V8.26471ZM5.84615 9.26471C6.1223 9.26471 6.34615 9.04085 6.34615 8.76471C6.34615 8.48856 6.1223 8.26471 5.84615 8.26471V9.26471ZM9.84697 4.13019L10.2651 3.85604V3.85604L9.84697 4.13019ZM9.97131 4.41075L10.4556 4.28635L9.97131 4.41075ZM1.56701 11.8942L1.35203 12.3456L1.56701 11.8942ZM1.11319 11.4701L0.674183 11.7094L1.11319 11.4701ZM9.43299 11.8942L9.64797 12.3456L9.43299 11.8942ZM9.88682 11.4701L10.3258 11.7094L9.88682 11.4701ZM6.35074 1.02682L6.46021 0.538949L6.35074 1.02682ZM6.65091 1.14303L6.89941 0.709151V0.709151L6.65091 1.14303ZM1.56701 1.10579L1.35203 0.654363V0.654363L1.56701 1.10579ZM1.11319 1.52995L0.674183 1.29063L1.11319 1.52995ZM5.95934 4.3524L5.52034 4.59173L5.52034 4.59173L5.95934 4.3524ZM6.41316 4.77657L6.62814 4.32514L6.62814 4.32514L6.41316 4.77657ZM3.07692 7.32353L7.92308 7.32353V6.32353L3.07692 6.32353V7.32353ZM3.07692 9.26471H5.84615V8.26471H3.07692V9.26471ZM2.66154 1.5H5.85023V0.5H2.66154V1.5ZM8.33846 11.5H2.66154V12.5H8.33846V11.5ZM1.5 10.4471V2.55294H0.5V10.4471H1.5ZM6.6837 1.82014L9.17193 4.14574L9.85476 3.41516L7.36653 1.08956L6.6837 1.82014ZM9.5 4.87854V10.4471H10.5V4.87854H9.5ZM9.17193 4.14574C9.36963 4.33051 9.40524 4.36837 9.42883 4.40435L10.2651 3.85604C10.1603 3.69613 10.0163 3.56611 9.85476 3.41516L9.17193 4.14574ZM10.5 4.87854C10.5 4.66645 10.5036 4.47346 10.4556 4.28635L9.48703 4.53514C9.49635 4.57144 9.5 4.61584 9.5 4.87854H10.5ZM9.42883 4.40435C9.45612 4.44597 9.47547 4.49016 9.48703 4.53514L10.4556 4.28635C10.4163 4.13326 10.3517 3.9881 10.2651 3.85604L9.42883 4.40435ZM2.66154 11.5C2.36303 11.5 2.16726 11.4997 2.01755 11.4882C1.87276 11.4772 1.81389 11.458 1.78199 11.4428L1.35203 12.3456C1.54227 12.4362 1.73986 12.4699 1.94141 12.4853C2.13803 12.5003 2.37846 12.5 2.66154 12.5V11.5ZM0.5 10.4471C0.5 10.71 0.499555 10.9394 0.516048 11.1281C0.533144 11.3237 0.571189 11.5205 0.674183 11.7094L1.55219 11.2307C1.542 11.212 1.52345 11.1691 1.51225 11.041C1.50044 10.906 1.5 10.7277 1.5 10.4471H0.5ZM1.78199 11.4428C1.67764 11.3931 1.59916 11.3169 1.55219 11.2307L0.674183 11.7094C0.826333 11.9885 1.06558 12.2092 1.35203 12.3456L1.78199 11.4428ZM8.33846 12.5C8.62154 12.5 8.86197 12.5003 9.05859 12.4853C9.26014 12.4699 9.45773 12.4362 9.64797 12.3456L9.21801 11.4428C9.18611 11.458 9.12724 11.4772 8.98245 11.4882C8.83275 11.4997 8.63697 11.5 8.33846 11.5V12.5ZM9.5 10.4471C9.5 10.7277 9.49956 10.906 9.48775 11.041C9.47655 11.1691 9.458 11.212 9.44781 11.2307L10.3258 11.7094C10.4288 11.5205 10.4669 11.3237 10.484 11.1281C10.5004 10.9394 10.5 10.71 10.5 10.4471H9.5ZM9.64797 12.3456C9.93442 12.2092 10.1737 11.9885 10.3258 11.7094L9.44781 11.2307C9.40084 11.3169 9.32236 11.3931 9.21801 11.4428L9.64797 12.3456ZM5.85023 1.5C6.12659 1.5 6.18842 1.50283 6.24127 1.51469L6.46021 0.538949C6.27403 0.497172 6.08186 0.5 5.85023 0.5V1.5ZM7.36653 1.08956C7.20356 0.937242 7.06626 0.804713 6.89941 0.709151L6.40241 1.5769C6.44516 1.60138 6.48746 1.63672 6.6837 1.82014L7.36653 1.08956ZM6.24127 1.51469C6.29915 1.52767 6.3535 1.54889 6.40241 1.5769L6.89941 0.709151C6.7625 0.630732 6.61425 0.573513 6.46021 0.538949L6.24127 1.51469ZM2.66154 0.5C2.37846 0.5 2.13803 0.49966 1.94141 0.514675C1.73986 0.530065 1.54227 0.563769 1.35203 0.654363L1.78199 1.55721C1.81389 1.54202 1.87276 1.52283 2.01755 1.51177C2.16726 1.50034 2.36303 1.5 2.66154 1.5V0.5ZM1.5 2.55294C1.5 2.27233 1.50044 2.09403 1.51225 1.959C1.52345 1.83088 1.542 1.78797 1.55219 1.76928L0.674183 1.29063C0.571189 1.47955 0.533144 1.67634 0.516048 1.87192C0.499555 2.06058 0.5 2.28997 0.5 2.55294H1.5ZM1.35203 0.654363C1.06558 0.790778 0.826333 1.01153 0.674183 1.29063L1.55219 1.76928C1.59916 1.68311 1.67764 1.6069 1.78199 1.55721L1.35203 0.654363ZM5.34615 1V3.32941H6.34615V1H5.34615ZM7.50769 5.38235H10V4.38235H7.50769V5.38235ZM5.34615 3.32941C5.34615 3.59238 5.34571 3.82177 5.3622 4.01043C5.3793 4.20601 5.41734 4.4028 5.52034 4.59173L6.39834 4.11308C6.38815 4.09438 6.3696 4.05147 6.3584 3.92335C6.3466 3.78832 6.34615 3.61002 6.34615 3.32941H5.34615ZM7.50769 4.38235C7.20918 4.38235 7.01341 4.38201 6.8637 4.37058C6.71892 4.35952 6.66005 4.34033 6.62814 4.32514L6.19818 5.22799C6.38842 5.31858 6.58602 5.35229 6.78756 5.36768C6.98419 5.38269 7.22461 5.38235 7.50769 5.38235V4.38235ZM5.52034 4.59173C5.67249 4.87082 5.91173 5.09158 6.19819 5.22799L6.62814 4.32514C6.5238 4.27545 6.44531 4.19924 6.39834 4.11308L5.52034 4.59173Z" fill="#0083FF"/>
</svg>
